<?xml version="1.0" encoding="utf-8"?>
<!-- Generator: Adobe Illustrator 27.8.0, SVG Export Plug-In . SVG Version: 6.00 Build 0)  -->
<svg version="1.1" id="Calque_1" xmlns="http://www.w3.org/2000/svg" xmlns:xlink="http://www.w3.org/1999/xlink" x="0px" y="0px"
	 viewBox="0 0 202 32" style="enable-background:new 0 0 202 32;" xml:space="preserve">
<style type="text/css">
	.st0{fill:#DFDCD1;}
</style>
<g>
	<path class="st0" d="M23.3,0H13.1H6.6H0v6.3l12.4,6.3H0v17.3h10.9l6.2-6.3v6.3h12.4v-6.3h-3.1l3.1-11L23.3,0z"/>
	<path class="st0" d="M44,0.6h2.6l5.9,16h-2.6l-1.3-3.8H42l-1.3,3.8h-2.6L44,0.6z M47.9,10.7l-2.6-7.8l0,0l-2.6,7.8H47.9z"/>
	<path class="st0" d="M53.6,11.1V0.6H56v10.6c0,2.5,1.2,3.6,3.7,3.6s3.7-1.1,3.7-3.6V0.6h2.4v10.6c0,3.5-1.8,5.8-6.2,5.8
		S53.6,14.6,53.6,11.1z"/>
	<path class="st0" d="M69,0.6h6c4.4,0,7,2.9,7,8s-2.6,8-7,8h-6V0.6z M74.8,14.5c3.7,0,4.6-2.8,4.6-5.9s-0.9-5.9-4.6-5.9h-3.5v11.8
		H74.8z"/>
	<path class="st0" d="M84.4,0.6H91c3.5,0,5.4,1.7,5.4,4.6c0,2-1.2,3.5-3,3.9l0,0c3.7,0.7,2.3,7,3.2,7.3v0.2H94
		c-0.7-0.7,0.8-6.3-3.1-6.3h-4.1v6.3h-2.4V0.6L84.4,0.6z M90.4,8.2c2.2,0,3.4-1,3.4-2.8c0-1.7-1-2.7-3.4-2.7h-3.7v5.5H90.4z"/>
	<path class="st0" d="M98.9,0.6H110v2.1h-8.7v4.5h7.7v2.1h-7.7v5.1h9v2.1H98.9V0.6z"/>
	<path class="st0" d="M116.6,10.2l-5.7-9.6h2.6l4.2,7.7l0,0l4.2-7.7h2.6l-5.7,9.6v6.4h-2.4v-6.4C116.4,10.2,116.6,10.2,116.6,10.2z"
		/>
	<path class="st0" d="M130.7,0.8h6.6c3.2,0,5.1,1.5,5.1,4c0,2-1.1,2.9-2.4,3.3l0,0c1.7,0.3,3.1,1.5,3.1,3.9c0,3.1-2.1,4.7-5.4,4.7
		h-7L130.7,0.8L130.7,0.8z M137.3,7.4c2,0,2.7-0.8,2.7-2.3c0-1.4-0.8-2.3-2.5-2.3h-4.3v4.5L137.3,7.4L137.3,7.4z M137.6,14.6
		c2.3,0,3-1.1,3-2.6c0-1.7-1-2.6-2.7-2.6h-4.8v5.3L137.6,14.6L137.6,14.6z"/>
	<path class="st0" d="M145.5,0.8h11.2v2.1H148v4.5h7.7v2.1H148v5.1h9v2.1h-11.4V0.8H145.5z"/>
	<path class="st0" d="M158.1,14.6l9.1-11.7l0,0h-8.6V0.8h11.6v2.1l-9.1,11.7l0,0h9.3v2.1h-12.3V14.6L158.1,14.6z"/>
	<path class="st0" d="M172.5,0.8h2.4v16h-2.4V0.8z"/>
	<path class="st0" d="M182.5,0.8h2.6l5.9,16h-2.6l-1.3-3.8h-6.6l-1.3,3.8h-2.6L182.5,0.8z M186.4,10.8L183.8,3l0,0l-2.6,7.8H186.4z"
		/>
	<path class="st0" d="M194.9,2.9h-5.5V0.8H203v2.1h-5.5v13.9h-2.6V2.9z"/>
	<path class="st0" d="M38.2,26.8c0-2,1.2-3.2,2.6-3.2c1,0,1.7,0.5,2,1.2l0,0v-3.5h0.8v8.6h-0.8v-1l0,0c-0.3,0.6-1,1.2-2,1.2
		C39.4,30,38.2,28.8,38.2,26.8z M41,29.3c1.2,0,2-1,2-2.5s-0.8-2.5-2-2.5c-1.3,0-1.9,1.2-1.9,2.5C39,28.2,39.7,29.3,41,29.3z"/>
	<path class="st0" d="M46.9,21.5h1v1h-1V21.5z M47,23.8h0.8v6.1H47V23.8z"/>
	<path class="st0" d="M51.9,29.9h-0.8v-6.1h0.8V25l0,0c0.3-0.8,0.9-1.4,1.7-1.4c0.2,0,0.4,0,0.5,0v0.8c-0.1,0-0.2,0-0.4,0
		c-1.1,0-1.9,0.9-1.9,2.1L51.9,29.9L51.9,29.9z"/>
	<path class="st0" d="M56.2,26.8c0-1.9,1.1-3.2,2.9-3.2c1.7,0,2.7,1.2,2.7,2.9c0,0.2,0,0.3,0,0.4H57c0,1.2,0.7,2.4,2.1,2.4
		c1.2,0,1.7-0.9,1.8-1.4h0.8c-0.3,1.1-1.1,2-2.6,2C57.2,30,56.2,28.7,56.2,26.8L56.2,26.8z M61,26.3c0-1.1-0.7-2-1.9-2s-2,0.9-2,2
		H61z"/>
	<path class="st0" d="M64.4,26.8c0-1.9,1.2-3.2,2.9-3.2c1.5,0,2.5,1,2.6,2.3h-0.8c0-0.7-0.5-1.6-1.8-1.6c-1.5,0-2.1,1.3-2.1,2.5
		c0,1.3,0.6,2.5,2.1,2.5c1.3,0,1.7-0.9,1.8-1.7h0.8C69.8,29,68.8,30,67.3,30C65.6,30,64.4,28.7,64.4,26.8L64.4,26.8z"/>
	<path class="st0" d="M73.1,28.3v-3.8h-0.9v-0.7h0.9v-2h0.8v2h1.2v0.7h-1.2v3.9c0,0.8,0.2,0.9,0.8,0.9c0.2,0,0.3,0,0.5,0V30
		c-0.2,0-0.4,0-0.6,0C73.7,29.9,73.1,29.6,73.1,28.3L73.1,28.3z"/>
	<path class="st0" d="M77.9,21.5h1v1h-1V21.5z M78,23.8h0.8v6.1H78V23.8z"/>
	<path class="st0" d="M81.7,26.8c0-1.9,1.1-3.2,2.9-3.2s2.9,1.3,2.9,3.2c0,1.9-1.1,3.2-2.9,3.2C82.8,30,81.7,28.7,81.7,26.8z
		 M84.6,29.3c1.4,0,2.1-1.1,2.1-2.5s-0.7-2.5-2.1-2.5s-2.1,1.1-2.1,2.5C82.5,28.2,83.2,29.3,84.6,29.3z"/>
	<path class="st0" d="M93.2,24.3c-1.1,0-1.9,0.8-1.9,1.7v3.9h-0.8v-6.1h0.8v0.9l0,0c0.3-0.5,1-1,2.1-1s2,0.6,2,2V30h-0.8v-4.1
		C94.6,25,94.2,24.3,93.2,24.3z"/>
	<path class="st0" d="M102.8,28.3c0-1.3,0.9-1.7,2.5-2c1-0.2,1.6-0.3,1.6-1c0-0.6-0.4-1-1.4-1c-1.2,0-1.6,0.4-1.6,1.3h-0.8
		c0.1-1.1,0.7-2,2.5-2c1.1,0,2.1,0.5,2.1,1.9v3.1c0,0.5,0.1,0.7,0.3,0.7c0,0,0.1,0,0.2,0v0.6c-0.1,0-0.3,0-0.4,0
		c-0.5,0-0.8-0.2-0.9-1l0,0c-0.4,0.7-1.1,1.1-2.1,1.1C103.5,30,102.8,29.3,102.8,28.3L102.8,28.3z M104.8,29.3
		c1.2,0,2.1-0.7,2.1-1.8v-1.1c-0.2,0.3-0.8,0.4-1.5,0.5c-1.2,0.2-1.8,0.5-1.8,1.3C103.6,29,104,29.4,104.8,29.3L104.8,29.3z"/>
	<path class="st0" d="M111.8,29.9H111v-6.1h0.8V25l0,0c0.3-0.8,0.9-1.4,1.7-1.4c0.2,0,0.4,0,0.5,0v0.8c-0.1,0-0.2,0-0.4,0
		c-1.1,0-1.9,0.9-1.9,2.1L111.8,29.9L111.8,29.9z"/>
	<path class="st0" d="M117.1,28.3v-3.8h-0.9v-0.7h0.9v-2h0.8v2h1.2v0.7h-1.2v3.9c0,0.8,0.2,0.9,0.8,0.9c0.2,0,0.3,0,0.5,0V30
		c-0.2,0-0.4,0-0.6,0C117.7,29.9,117.1,29.6,117.1,28.3L117.1,28.3z"/>
	<path class="st0" d="M121.9,21.5h1v1h-1V21.5z M122,23.8h0.8v6.1H122V23.8z"/>
	<path class="st0" d="M125.6,27.9h0.8c0,0.8,0.6,1.5,1.9,1.5c1.1,0,1.5-0.5,1.5-1.1c0-0.9-0.9-1-1.7-1.2c-1.1-0.3-2.2-0.6-2.2-1.8
		c0-1,0.8-1.6,2.1-1.6c1.6,0,2.3,0.9,2.4,1.9h-0.8c-0.1-0.5-0.4-1.2-1.6-1.2c-0.9,0-1.4,0.3-1.4,0.9c0,0.8,0.8,0.9,1.7,1.1
		c1.1,0.3,2.3,0.6,2.3,1.9c0,1.1-0.9,1.8-2.4,1.8C126.6,30,125.7,29.1,125.6,27.9L125.6,27.9z"/>
	<path class="st0" d="M133.8,28.3v-3.8h-0.9v-0.7h0.9v-2h0.8v2h1.2v0.7h-1.2v3.9c0,0.8,0.2,0.9,0.8,0.9c0.2,0,0.3,0,0.5,0V30
		c-0.2,0-0.4,0-0.6,0C134.4,29.9,133.8,29.6,133.8,28.3L133.8,28.3z"/>
	<path class="st0" d="M138.6,21.5h1v1h-1V21.5z M138.7,23.8h0.8v6.1h-0.8V23.8z"/>
	<path class="st0" d="M142.5,26.8c0-2,1.2-3.2,2.6-3.2c1,0,1.7,0.5,2,1.2l0,0v-1h0.8V32h-0.8v-3.1l0,0c-0.3,0.6-1,1.2-2,1.2
		C143.6,30,142.5,28.8,142.5,26.8z M145.2,29.3c1.2,0,2-1,2-2.5s-0.8-2.5-2-2.5c-1.3,0-1.9,1.2-1.9,2.5
		C143.3,28.2,143.9,29.3,145.2,29.3z"/>
	<path class="st0" d="M151.2,28v-4.3h0.8v4.1c0,0.8,0.3,1.4,1.4,1.4c1.1,0,1.9-0.8,1.9-1.7v-3.9h0.8v6.1h-0.8V29l0,0
		c-0.3,0.5-1,1-2.1,1C152.1,30,151.2,29.4,151.2,28L151.2,28z"/>
	<path class="st0" d="M159,26.8c0-1.9,1.1-3.2,2.9-3.2c1.7,0,2.7,1.2,2.7,2.9c0,0.2,0,0.3,0,0.4h-4.8c0,1.2,0.7,2.4,2.1,2.4
		c1.2,0,1.7-0.9,1.8-1.4h0.8c-0.3,1.1-1.1,2-2.6,2C160.1,30,159,28.7,159,26.8L159,26.8z M163.8,26.3c0-1.1-0.7-2-1.9-2s-2,0.9-2,2
		H163.8z"/>
</g>
</svg>
