<?xml version="1.0" encoding="utf-8"?>
<!-- Generator: Adobe Illustrator 27.8.0, SVG Export Plug-In . SVG Version: 6.00 Build 0)  -->
<svg version="1.1" id="Calque_1" xmlns="http://www.w3.org/2000/svg" xmlns:xlink="http://www.w3.org/1999/xlink" x="0px" y="0px"
	 viewBox="0 0 202 32" style="enable-background:new 0 0 202 32;" xml:space="preserve">
<style type="text/css">
	.st0{fill:#DFDCD1;}
</style>
<g>
	<path class="st0" d="M22.9,1.7h-10H6.4H0v6.1l12.2,6.1H0v17h10.7l6-6.1v6.1h12.2V19.5h-3.1l3.1-6.6L22.9,1.7z"/>
	<path class="st0" d="M46.1,1.9h2.6l5.7,15.6h-2.6l-1.2-3.7h-6.4l-1.2,3.7h-2.6L46.1,1.9z M49.9,11.7L47.3,4l0,0l-2.6,7.7H49.9z"/>
	<path class="st0" d="M55.5,12.1V1.9h2.4v10.3c0,2.5,1.1,3.5,3.6,3.5s3.6-1.1,3.6-3.5V1.9h2.5v10.3c0,3.4-1.7,5.7-6,5.7
		S55.5,15.6,55.5,12.1z"/>
	<path class="st0" d="M70.6,1.9h5.8c4.3,0,6.9,2.9,6.9,7.9s-2.6,7.9-6.9,7.9h-5.8V1.9z M76.3,15.5c3.6,0,4.5-2.8,4.5-5.7
		S79.9,4,76.3,4h-3.4v11.6h3.4V15.5z"/>
	<path class="st0" d="M85.7,1.9h6.4c3.4,0,5.3,1.6,5.3,4.5c0,1.9-1.1,3.4-3,3.8l0,0c3.6,0.7,2.2,6.9,3.2,7.2v0.2h-2.6
		c-0.7-0.7,0.8-6.1-3.1-6.1h-4v6.1h-2.4L85.7,1.9L85.7,1.9z M91.5,9.2c2.1,0,3.4-1,3.4-2.8c0-1.6-1-2.7-3.4-2.7h-3.6v5.4
		C87.9,9.2,91.5,9.2,91.5,9.2z"/>
	<path class="st0" d="M99.9,1.9h10.8v2h-8.5v4.4h7.6v2h-7.6v5h8.8v2H99.9V1.9z"/>
	<path class="st0" d="M117.2,11.3l-5.6-9.4h2.6l4.1,7.6l0,0l4.1-7.6h2.6l-5.6,9.4v6.2h-2.4v-6.2C117,11.3,117.2,11.3,117.2,11.3z"/>
	<path class="st0" d="M131,2.1h6.4c3.2,0,5,1.4,5,3.9c0,1.9-1.1,2.9-2.4,3.3l0,0c1.6,0.3,3.1,1.4,3.1,3.8c0,3.1-2,4.6-5.3,4.6H131
		V2.1L131,2.1z M137.4,8.5c1.9,0,2.7-0.8,2.7-2.2c0-1.3-0.8-2.2-2.5-2.2h-4.2v4.4L137.4,8.5L137.4,8.5z M137.7,15.6
		c2.2,0,3-1.1,3-2.6c0-1.6-1-2.6-2.7-2.6h-4.7v5.2L137.7,15.6L137.7,15.6z"/>
	<path class="st0" d="M145.5,2.1h10.9v2H148v4.4h7.6v2H148v5h8.8v2h-11.1L145.5,2.1L145.5,2.1z"/>
	<path class="st0" d="M157.8,15.6l8.9-11.5l0,0h-8.4v-2h11.3v2l-8.9,11.5l0,0h9.1v2h-12.1V15.6L157.8,15.6z"/>
	<path class="st0" d="M171.9,2.1h2.4v15.6h-2.4V2.1z"/>
	<path class="st0" d="M181.7,2.1h2.6l5.7,15.6h-2.6l-1.2-3.7h-6.4l-1.2,3.7h-2.7L181.7,2.1z M185.5,11.8l-2.6-7.7l0,0l-2.6,7.7
		H185.5z"/>
	<path class="st0" d="M193.8,4.1h-5.4v-2h13.3v2h-5.3v13.6h-2.6V4.1z"/>
	<path class="st0" d="M40.5,27.4c0-1.9,1.1-3.2,2.6-3.2c1,0,1.6,0.5,1.9,1.1l0,0V22h0.8v8.4H45v-1l0,0c-0.3,0.6-1,1.1-1.9,1.1
		C41.6,30.6,40.5,29.5,40.5,27.4z M43.1,29.9c1.1,0,1.9-1,1.9-2.5S44.3,25,43.1,25c-1.2,0-1.8,1.1-1.8,2.5
		C41.2,28.9,41.9,29.9,43.1,29.9z"/>
	<path class="st0" d="M49,22.3h1v1h-1V22.3z M49.1,24.6h0.8v5.9h-0.8V24.6z"/>
	<path class="st0" d="M53.9,30.5h-0.8v-5.9h0.8v1.1l0,0c0.3-0.8,0.9-1.3,1.6-1.3c0.2,0,0.4,0,0.5,0v0.8c-0.1,0-0.2,0-0.4,0
		c-1.1,0-1.8,0.9-1.8,2L53.9,30.5L53.9,30.5z"/>
	<path class="st0" d="M58.1,27.4c0-1.8,1.1-3.2,2.9-3.2c1.6,0,2.7,1.1,2.7,2.9c0,0.2,0,0.3,0,0.4h-4.7c0,1.1,0.7,2.4,2,2.4
		c1.1,0,1.6-0.9,1.7-1.3h0.8c-0.3,1.1-1.1,1.9-2.6,1.9C59,30.6,58.1,29.4,58.1,27.4L58.1,27.4z M62.8,27c0-1.1-0.7-1.9-1.8-1.9
		S59,26,59,27H62.8z"/>
	<path class="st0" d="M66.1,27.4c0-1.8,1.1-3.2,2.9-3.2c1.4,0,2.5,1,2.6,2.2h-0.8c0-0.7-0.5-1.5-1.7-1.5c-1.4,0-2,1.2-2,2.5
		c0,1.2,0.6,2.5,2,2.5c1.2,0,1.6-0.9,1.7-1.6h0.8c-0.1,1.3-1.1,2.4-2.6,2.4C67.3,30.6,66.1,29.4,66.1,27.4L66.1,27.4z"/>
	<path class="st0" d="M74.6,29v-3.7h-0.9v-0.7h0.9v-1.9h0.8v1.9h1.1v0.7h-1.1v3.8c0,0.8,0.2,0.9,0.8,0.9c0.2,0,0.3,0,0.5,0v0.7
		c-0.2,0-0.4,0-0.6,0C75.2,30.5,74.6,30.2,74.6,29L74.6,29z"/>
	<path class="st0" d="M79.3,22.3h1v1h-1V22.3z M79.4,24.6h0.8v5.9h-0.8V24.6z"/>
	<path class="st0" d="M83,27.4c0-1.8,1.1-3.2,2.9-3.2c1.7,0,2.9,1.2,2.9,3.2c0,1.8-1.1,3.2-2.9,3.2S83,29.4,83,27.4z M85.9,29.9
		c1.3,0,2-1.1,2-2.5c0-1.3-0.7-2.5-2-2.5s-2,1.1-2,2.5C83.8,28.9,84.5,29.9,85.9,29.9z"/>
	<path class="st0" d="M94.3,25c-1.1,0-1.8,0.8-1.8,1.6v3.8h-0.8v-5.9h0.8v0.9l0,0c0.3-0.5,1-1,2-1c1.1,0,1.9,0.6,1.9,1.9v4.2h-0.8
		v-4C95.6,25.7,95.3,25,94.3,25z"/>
	<path class="st0" d="M103.7,29c0-1.2,0.9-1.6,2.5-1.9c1-0.2,1.5-0.3,1.5-1c0-0.6-0.4-1-1.3-1c-1.1,0-1.5,0.4-1.5,1.2H104
		c0.1-1.1,0.7-1.9,2.5-1.9c1.1,0,2,0.5,2,1.8v3.1c0,0.5,0.1,0.7,0.3,0.7c0,0,0.1,0,0.2,0v0.6c-0.1,0-0.3,0-0.4,0
		c-0.5,0-0.8-0.2-0.9-1l0,0c-0.4,0.7-1.1,1.1-2,1.1C104.4,30.6,103.7,29.9,103.7,29L103.7,29z M105.6,29.9c1.1,0,2-0.7,2-1.7V27
		c-0.2,0.3-0.8,0.4-1.4,0.5c-1.1,0.2-1.7,0.5-1.7,1.2C104.5,29.6,104.8,30,105.6,29.9L105.6,29.9z"/>
	<path class="st0" d="M112.5,30.5h-0.8v-5.9h0.8v1.1l0,0c0.3-0.8,0.9-1.3,1.6-1.3c0.2,0,0.4,0,0.5,0v0.8c-0.1,0-0.2,0-0.4,0
		c-1.1,0-1.8,0.9-1.8,2L112.5,30.5L112.5,30.5z"/>
	<path class="st0" d="M117.7,29v-3.7h-0.9v-0.7h0.9v-1.9h0.8v1.9h1.1v0.7h-1.1v3.8c0,0.8,0.2,0.9,0.8,0.9c0.2,0,0.3,0,0.5,0v0.7
		c-0.2,0-0.4,0-0.6,0C118.3,30.5,117.7,30.2,117.7,29L117.7,29z"/>
	<path class="st0" d="M122.4,22.3h1v1h-1V22.3z M122.5,24.6h0.8v5.9h-0.8V24.6z"/>
	<path class="st0" d="M126,28.6h0.8c0,0.8,0.6,1.4,1.8,1.4c1.1,0,1.4-0.5,1.4-1.1c0-0.9-0.9-1-1.6-1.1c-1.1-0.3-2.1-0.6-2.1-1.7
		c0-1,0.8-1.5,2-1.5c1.5,0,2.2,0.9,2.4,1.8h-0.8c-0.1-0.5-0.4-1.1-1.5-1.1c-0.9,0-1.3,0.3-1.3,0.9c0,0.8,0.8,0.9,1.6,1.1
		c1.1,0.3,2.2,0.6,2.2,1.8c0,1.1-0.9,1.7-2.4,1.7C127,30.6,126.1,29.7,126,28.6L126,28.6z"/>
	<path class="st0" d="M134,29v-3.7h-0.9v-0.7h0.9v-1.9h0.8v1.9h1.1v0.7h-1.1v3.8c0,0.8,0.2,0.9,0.8,0.9c0.2,0,0.3,0,0.5,0v0.7
		c-0.2,0-0.4,0-0.6,0C134.6,30.5,134,30.2,134,29L134,29z"/>
	<path class="st0" d="M138.7,22.3h1v1h-1V22.3z M138.9,24.6h0.8v5.9h-0.8V24.6z"/>
	<path class="st0" d="M142.5,27.4c0-1.9,1.1-3.2,2.6-3.2c1,0,1.6,0.5,1.9,1.1l0,0v-1h0.8v8H147v-3.1l0,0c-0.3,0.6-1,1.1-1.9,1.1
		C143.6,30.6,142.5,29.5,142.5,27.4z M145.2,29.9c1.1,0,1.9-1,1.9-2.5s-0.8-2.5-1.9-2.5c-1.2,0-1.8,1.1-1.8,2.5
		C143.4,28.9,143.9,29.9,145.2,29.9z"/>
	<path class="st0" d="M151,28.7v-4.2h0.8v4c0,0.8,0.3,1.3,1.3,1.3s1.8-0.8,1.8-1.6v-3.8h0.8v5.9H155v-0.7l0,0c-0.3,0.5-1,1-2,1
		C151.9,30.6,151,30,151,28.7L151,28.7z"/>
	<path class="st0" d="M158.7,27.4c0-1.8,1.1-3.2,2.9-3.2c1.6,0,2.7,1.1,2.7,2.9c0,0.2,0,0.3,0,0.4h-4.7c0,1.1,0.7,2.4,2,2.4
		c1.1,0,1.6-0.9,1.7-1.3h0.8c-0.3,1.1-1.1,1.9-2.6,1.9C159.7,30.6,158.7,29.4,158.7,27.4L158.7,27.4z M163.4,27
		c0-1.1-0.7-1.9-1.8-1.9c-1.1,0-1.9,0.9-1.9,1.9H163.4z"/>
</g>
</svg>
